# xmcd
#
# Track frame offsets: 
#        150
#        16816
#        35130
#        53013
#        70471
#        84645
#        103766
#        118853
#        148738
#        164105
#        185672
#
# Disc length: 2708 seconds
#
# Revision: 0
# Processed by: cddbd v1.5.2PL0 Copyright (c) Steve Scherf et al.
# Submitted via: ExactAudioCopy v0.95b4
#
DISCID=a50a920b
DTITLE=North Twin - Falling Apart
DYEAR=2007
DGENRE=Alternative Country
TTITLE0=The Good Guy
TTITLE1=Gasoline
TTITLE2=Falling Apart
TTITLE3=No One's Getting Out
TTITLE4=Carol Anne
TTITLE5=Halloween in Houston
TTITLE6=Motorbike
TTITLE7=Turn Around
TTITLE8=You Can Never Go Home
TTITLE9=Broken Legs
TTITLE10=Breathe
EXTD=
EXTT0=
EXTT1=
EXTT2=
EXTT3=
EXTT4=
EXTT5=
EXTT6=
EXTT7=
EXTT8=
EXTT9=
EXTT10=
PLAYORDER=
